# xmcd
#
# Track frame offsets:
#	150
#	11884
#	29781
#	38832
#	49935
#	67505
#	80395
#	94312
#	108402
#	119724
#	135105
#	145423
#	160996
#	169644
#	178166
#	196813
#	208753
#	230344
#	240686
#	250360
#
# Disc length: 3510
#
# Revision: 1
# Processed by: cddbd v1.5.1PL0 Copyright (c) Steve Scherf et al.
# Submitted via: MusicManager v6.0.0.0
# Normalized: r0:DSETVAR1
#
DISCID=1a0db414
DTITLE=Various Artist - Leatherneck Jamboree
DYEAR=1900
DGENRE=country
TTITLE0=Jim Reeves - Intro/When it Rains
TTITLE1=The Jordanaires - Baby Won't You Please Come Home
TTITLE2=Jim Reeves - Each Time You Leave
TTITLE3=The Jordanaires - Joshua
TTITLE4=Jim Reeves - Four Walls
TTITLE5=Ernest Tubb - Intro/Jealous Lovin' Heart
TTITLE6=Wilburn Brothers - You're Not Playing
TTITLE7=Ernest Tubb - You're Breaking My Heart
TTITLE8=Wilburn Brothers - Bye Bye Love
TTITLE9=Ernest Tubb - I'm Walking the Floor Over You
TTITLE10=T. Texas Tyler - Train Song
TTITLE11=Del Wood - Piano Instrumental
TTITLE12=T. Texas Tyler - Bummin' Around
TTITLE13=Del Wood - Piano Instrumental
TTITLE14=T. Texas Tyler - Courtin' in the Rain
TTITLE15=Faron Young - Intro/I've Got Five Dollars
TTITLE16=Justin Tubb - The Party is Over
TTITLE17=Faron Young - Moonlight Mountain
TTITLE18=Justin Tubb - Bachelor Man
TTITLE19=Faron Young - He Was There
EXTD=
EXTT0=
EXTT1=
EXTT2=
EXTT3=
EXTT4=
EXTT5=
EXTT6=
EXTT7=
EXTT8=
EXTT9=
EXTT10=
EXTT11=
EXTT12=
EXTT13=
EXTT14=
EXTT15=
EXTT16=
EXTT17=
EXTT18=
EXTT19=
PLAYORDER=
